<svg width="588.0124999999999px" height="122.021240234375px" xmlns="http://www.w3.org/2000/svg" viewBox="-44.006249999999966 13.9893798828125 588.0124999999999 122.021240234375" style="background: rgba(0, 0, 0, 0);" preserveAspectRatio="xMidYMid"><defs><linearGradient id="editing-sticker-gradient" x1="0.5" y1="0.2" x2="0.5" y2="0.8"><stop offset="0" stop-color="#fd9"></stop><stop offset="1" stop-color="#9df"></stop></linearGradient><filter id="editing-sticker" x="-100%" y="-100%" width="300%" height="300%"><feMorphology operator="erode" radius="1" in="SourceAlpha" result="alpha-erode"></feMorphology><feConvolveMatrix order="3,3" divisor="1" kernelMatrix="0 1 0 1 1 1 0 1 0" in="alpha-erode" result="alpha-round"></feConvolveMatrix><feMorphology operator="dilate" radius="3.5" in="alpha-round" result="dilate-shadow"></feMorphology><feGaussianBlur in="dilate-shadow" stdDeviation="1.5" result="shadow"></feGaussianBlur><feFlood flood-color="#fff" result="flood-sticker"></feFlood><feComposite operator="in" in="flood-sticker" in2="alpha-round" result="comp-sticker"></feComposite><feMorphology operator="dilate" radius="3" in="comp-sticker" result="morph-sticker"></feMorphology><feConvolveMatrix order="3,3" divisor="1" kernelMatrix="0 1 0 1 1 1 0 1 0" in="morph-sticker" result="sticker"></feConvolveMatrix><feMerge><feMergeNode in="shadow"></feMergeNode><feMergeNode in="sticker"></feMergeNode><feMergeNode in="SourceGraphic"></feMergeNode></feMerge></filter></defs><g filter="url(#editing-sticker)"><g transform="translate(41.77499574422836, 97.45718765258789)"><path d="M27.84-9.86L27.84-9.86L27.84-9.86Q29.06-8.32 29.06-5.34L29.06-5.34L29.06-5.34Q29.06-2.37 26.78-0.54L26.78-0.54L26.78-0.54Q24.51 1.28 20.54 1.28L20.54 1.28L20.54 1.28Q18.24 1.28 14.66 0.77L14.66 0.77L14.66 0.77Q7.62-0.32 5.60-0.32L5.60-0.32L5.60-0.32Q3.58-0.32 2.75-0.22L2.75-0.22L2.75-0.22Q1.92-0.13 0.58 0L0.58 0L8.32-42.24L22.34-42.24L15.94-7.04L15.94-7.04Q16.77-6.91 17.54-6.91L17.54-6.91L19.14-6.91L19.14-6.91Q24.51-6.91 27.84-9.86ZM46.59 0L32.64 0L40.77-42.24L54.85-42.24L46.59 0ZM85.38-33.92L85.38-33.92L85.38-33.92Q80.19-33.92 76.42-35.65L76.42-35.65L74.37-25.28L86.72-25.28L86.72-25.28Q86.72-21.89 85.02-19.74L85.02-19.74L85.02-19.74Q83.33-17.60 80.26-17.60L80.26-17.60L80.26-17.60Q76.93-17.60 73.86-18.82L73.86-18.82L73.86-18.82Q73.22-19.07 73.15-19.14L73.15-19.14L69.50 0L55.55 0L63.68-42.24L92.22-42.24L92.22-42.24Q92.22-38.34 90.40-36.13L90.40-36.13L90.40-36.13Q88.58-33.92 85.38-33.92ZM117.95-9.86L117.95-9.86L117.95-9.86Q119.17-8.32 119.17-5.82L119.17-5.82L119.17-5.82Q119.17-2.37 116.61-0.54L116.61-0.54L116.61-0.54Q114.05 1.28 110.02 1.28L110.02 1.28L110.02 1.28Q107.71 1.28 104.19 0.77L104.19 0.77L104.19 0.77Q97.28-0.32 95.17-0.32L95.17-0.32L95.17-0.32Q93.06-0.32 92.22-0.22L92.22-0.22L92.22-0.22Q91.39-0.13 90.05 0L90.05 0L97.92-42.24L125.50-42.24L125.50-42.24Q125.50-38.34 123.62-36.29L123.62-36.29L123.62-36.29Q121.73-34.24 118.02-34.24L118.02-34.24L118.02-34.24Q114.30-34.24 110.53-35.97L110.53-35.97L108.54-24.77L119.94-24.77L119.94-24.77Q119.94-21.38 118.27-19.49L118.27-19.49L118.27-19.49Q116.61-17.60 113.82-17.60L113.82-17.60L113.82-17.60Q111.04-17.60 109.31-18.24L109.31-18.24L109.31-18.24Q107.58-18.88 107.39-19.07L107.39-19.07L105.09-6.98L105.09-6.98Q106.62-6.78 109.50-6.78L109.50-6.78L109.50-6.78Q114.43-6.78 117.95-9.86ZM137.60-0.32L137.60-0.32L145.66-42.24L145.66-42.24Q153.22-42.88 158.08-42.88L158.08-42.88L158.08-42.88Q162.94-42.88 166.08-42.46L166.08-42.46L166.08-42.46Q169.22-42.05 171.33-40.96L171.33-40.96L171.33-40.96Q175.55-38.91 175.55-33.28L175.55-33.28L175.55-33.28Q175.55-30.02 172.74-27.26L172.74-27.26L172.74-27.26Q170.11-24.77 167.23-24.19L167.23-24.19L167.23-24.19Q170.30-23.68 172.48-21.38L172.48-21.38L172.48-21.38Q174.78-18.94 174.78-15.17L174.78-15.17L174.78-15.17Q174.78-7.87 169.34-3.62L169.34-3.62L169.34-3.62Q163.90 0.64 153.22 0.64L153.22 0.64L153.22 0.64Q145.86 0.64 137.60-0.32ZM155.01-20.61L151.81-4.03L151.81-4.03Q152.38-3.97 152.51-3.97L152.51-3.97L153.09-3.97L153.09-3.97Q158.34-3.97 160.58-7.42L160.58-7.42L160.58-7.42Q162.24-10.11 162.24-15.04L162.24-15.04L162.24-15.04Q162.24-17.66 160.54-19.07L160.54-19.07L160.54-19.07Q158.85-20.48 155.01-20.61L155.01-20.61ZM164.74-33.22L164.74-33.22L164.74-33.22Q164.74-38.53 159.62-38.53L159.62-38.53L159.04-38.53L159.04-38.53Q158.78-38.53 158.40-38.46L158.40-38.46L155.84-24.96L156.48-24.96L156.48-24.96Q164.74-25.15 164.74-33.22ZM179.97-15.62L179.97-15.62L179.97-15.62Q179.97-27.71 186.24-35.33L186.24-35.33L186.24-35.33Q192.90-43.58 204.48-43.58L204.48-43.58L204.48-43.58Q212.86-43.58 217.09-39.52L217.09-39.52L217.09-39.52Q221.31-35.46 221.31-26.88L221.31-26.88L221.31-26.88Q221.31-13.82 214.66-6.21L214.66-6.21L214.66-6.21Q208.06 1.28 196.99 1.28L196.99 1.28L196.99 1.28Q188.35 1.28 184.16-3.04L184.16-3.04L184.16-3.04Q179.97-7.36 179.97-15.62ZM196.80-28.86L196.80-28.86L196.80-28.86Q193.92-17.34 193.92-8.26L193.92-8.26L193.92-8.26Q193.92-6.08 194.66-4.67L194.66-4.67L194.66-4.67Q195.39-3.26 197.34-3.26L197.34-3.26L197.34-3.26Q199.30-3.26 200.51-4.19L200.51-4.19L200.51-4.19Q201.73-5.12 202.69-7.23L202.69-7.23L202.69-7.23Q204.22-10.69 205.66-18.02L205.66-18.02L205.66-18.02Q207.10-25.34 207.23-28.38L207.23-28.38L207.23-28.38Q207.36-31.42 207.36-33.73L207.36-33.73L207.36-33.73Q207.36-36.03 206.66-37.50L206.66-37.50L206.66-37.50Q205.95-38.98 204.06-38.98L204.06-38.98L204.06-38.98Q202.18-38.98 200.90-37.82L200.90-37.82L200.90-37.82Q198.53-35.65 196.80-28.86ZM225.41-15.62L225.41-15.62L225.41-15.62Q225.41-27.71 231.68-35.33L231.68-35.33L231.68-35.33Q238.34-43.58 249.92-43.58L249.92-43.58L249.92-43.58Q258.30-43.58 262.53-39.52L262.53-39.52L262.53-39.52Q266.75-35.46 266.75-26.88L266.75-26.88L266.75-26.88Q266.75-13.82 260.10-6.21L260.10-6.21L260.10-6.21Q253.50 1.28 242.43 1.28L242.43 1.28L242.43 1.28Q233.79 1.28 229.60-3.04L229.60-3.04L229.60-3.04Q225.41-7.36 225.41-15.62ZM242.24-28.86L242.24-28.86L242.24-28.86Q239.36-17.34 239.36-8.26L239.36-8.26L239.36-8.26Q239.36-6.08 240.10-4.67L240.10-4.67L240.10-4.67Q240.83-3.26 242.78-3.26L242.78-3.26L242.78-3.26Q244.74-3.26 245.95-4.19L245.95-4.19L245.95-4.19Q247.17-5.12 248.13-7.23L248.13-7.23L248.13-7.23Q249.66-10.69 251.10-18.02L251.10-18.02L251.10-18.02Q252.54-25.34 252.67-28.38L252.67-28.38L252.67-28.38Q252.80-31.42 252.80-33.73L252.80-33.73L252.80-33.73Q252.80-36.03 252.10-37.50L252.10-37.50L252.10-37.50Q251.39-38.98 249.50-38.98L249.50-38.98L249.50-38.98Q247.62-38.98 246.34-37.82L246.34-37.82L246.34-37.82Q243.97-35.65 242.24-28.86ZM294.85-29.57L294.85-29.57L294.85-29.57Q295.81-31.49 295.81-33.28L295.81-33.28L295.81-33.28Q295.81-35.07 295.62-36.06L295.62-36.06L295.62-36.06Q295.42-37.06 294.98-37.82L294.98-37.82L294.98-37.82Q294.02-39.49 292.10-39.49L292.10-39.49L292.10-39.49Q289.73-39.49 287.81-37.76L287.81-37.76L287.81-37.76Q285.76-35.97 285.76-33.15L285.76-33.15L285.76-33.15Q285.76-31.36 287.01-29.98L287.01-29.98L287.01-29.98Q288.26-28.61 290.18-27.33L290.18-27.33L290.18-27.33Q292.10-26.05 294.27-24.77L294.27-24.77L294.27-24.77Q296.45-23.49 298.37-21.95L298.37-21.95L298.37-21.95Q302.78-18.43 302.78-13.70L302.78-13.70L302.78-13.70Q302.78-10.50 301.09-7.78L301.09-7.78L301.09-7.78Q299.39-5.06 296.58-3.07L296.58-3.07L296.58-3.07Q290.43 1.28 282.30 1.28L282.30 1.28L282.30 1.28Q275.71 1.28 272.32-0.86L272.32-0.86L272.32-0.86Q268.93-3.01 268.93-6.27L268.93-6.27L268.93-6.27Q268.93-12.10 273.47-13.57L273.47-13.57L273.47-13.57Q274.75-14.02 276.70-14.02L276.70-14.02L276.70-14.02Q278.66-14.02 280.90-13.18L280.90-13.18L280.90-13.18Q279.87-10.56 279.87-8.19L279.87-8.19L279.87-8.19Q279.87-3.07 283.52-3.07L283.52-3.07L283.52-3.07Q285.89-3.07 287.84-4.80L287.84-4.80L287.84-4.80Q289.79-6.53 289.79-8.48L289.79-8.48L289.79-8.48Q289.79-10.43 288.54-11.84L288.54-11.84L288.54-11.84Q287.30-13.25 285.44-14.37L285.44-14.37L285.44-14.37Q283.58-15.49 281.44-16.58L281.44-16.58L281.44-16.58Q279.30-17.66 277.44-19.20L277.44-19.20L277.44-19.20Q273.09-22.72 273.09-28.35L273.09-28.35L273.09-28.35Q273.09-32 274.88-34.85L274.88-34.85L274.88-34.85Q276.67-37.70 279.55-39.62L279.55-39.62L279.55-39.62Q285.31-43.52 292.38-43.52L292.38-43.52L292.38-43.52Q299.46-43.52 302.88-41.41L302.88-41.41L302.88-41.41Q306.30-39.30 306.30-35.71L306.30-35.71L306.30-35.71Q306.30-32.58 303.87-30.59L303.87-30.59L303.87-30.59Q301.76-28.93 299.20-28.93L299.20-28.93L299.20-28.93Q296.64-28.93 294.85-29.57ZM312.77-31.17L312.77-31.17L312.77-31.17Q310.59-32.83 310.59-36.38L310.59-36.38L310.59-36.38Q310.59-39.94 312.93-41.79L312.93-41.79L312.93-41.79Q315.26-43.65 319.30-43.65L319.30-43.65L319.30-43.65Q321.86-43.65 327.94-42.75L327.94-42.75L332.29-42.11L332.29-42.11Q334.46-41.86 336.74-41.86L336.74-41.86L336.74-41.86Q339.01-41.86 340.54-42.82L340.54-42.82L340.54-42.82Q342.85-40.77 342.85-37.82L342.85-37.82L342.85-37.82Q342.85-34.88 340.22-32.77L340.22-32.77L340.22-32.77Q337.54-30.53 334.08-30.53L334.08-30.53L334.08-30.53Q332.42-30.53 329.73-30.98L329.73-30.98L329.73-30.98Q326.59-21.12 326.59-14.27L326.59-14.27L326.59-14.27Q326.59-7.42 330.05-3.84L330.05-3.84L330.05-3.84Q328.45-0.96 326.08 0.16L326.08 0.16L326.08 0.16Q323.71 1.28 320.16 1.28L320.16 1.28L320.16 1.28Q316.61 1.28 314.40-0.67L314.40-0.67L314.40-0.67Q312.19-2.62 312.19-6.66L312.19-6.66L312.19-6.66Q312.19-11.33 314.75-19.01L314.75-19.01L314.75-19.01Q317.31-26.62 321.15-32.45L321.15-32.45L321.15-32.45Q319.30-32.64 317.38-32.64L317.38-32.64L317.38-32.64Q313.41-32.64 312.77-31.17ZM368.13-9.86L368.13-9.86L368.13-9.86Q369.34-8.32 369.34-5.82L369.34-5.82L369.34-5.82Q369.34-2.37 366.78-0.54L366.78-0.54L366.78-0.54Q364.22 1.28 360.19 1.28L360.19 1.28L360.19 1.28Q357.89 1.28 354.37 0.77L354.37 0.77L354.37 0.77Q347.46-0.32 345.34-0.32L345.34-0.32L345.34-0.32Q343.23-0.32 342.40-0.22L342.40-0.22L342.40-0.22Q341.57-0.13 340.22 0L340.22 0L348.10-42.24L375.68-42.24L375.68-42.24Q375.68-38.34 373.79-36.29L373.79-36.29L373.79-36.29Q371.90-34.24 368.19-34.24L368.19-34.24L368.19-34.24Q364.48-34.24 360.70-35.97L360.70-35.97L358.72-24.77L370.11-24.77L370.11-24.77Q370.11-21.38 368.45-19.49L368.45-19.49L368.45-19.49Q366.78-17.60 364-17.60L364-17.60L364-17.60Q361.22-17.60 359.49-18.24L359.49-18.24L359.49-18.24Q357.76-18.88 357.57-19.07L357.57-19.07L355.26-6.98L355.26-6.98Q356.80-6.78 359.68-6.78L359.68-6.78L359.68-6.78Q364.61-6.78 368.13-9.86ZM388.35 0L374.66 0L382.46-42.05L382.46-42.05Q388.80-42.75 398.05-42.75L398.05-42.75L398.05-42.75Q407.30-42.75 411.58-40.06L411.58-40.06L411.58-40.06Q415.87-37.38 415.87-31.97L415.87-31.97L415.87-31.97Q415.87-26.56 413.09-23.17L413.09-23.17L413.09-23.17Q410.30-19.78 405.50-18.69L405.50-18.69L405.50-18.69Q406.59-13.38 409.09-9.09L409.09-9.09L409.09-9.09Q411.39-5.06 414.08-3.78L414.08-3.78L414.08-3.78Q413.12-1.09 411.17 0.10L411.17 0.10L411.17 0.10Q409.22 1.28 406.43 1.28L406.43 1.28L406.43 1.28Q403.65 1.28 401.47-0.35L401.47-0.35L401.47-0.35Q399.30-1.98 397.57-4.99L397.57-4.99L397.57-4.99Q393.92-11.52 393.54-21.82L393.54-21.82L393.98-21.82L393.98-21.82Q398.72-21.95 401.09-24.42L401.09-24.42L401.09-24.42Q403.46-26.88 403.46-32.06L403.46-32.06L403.46-32.06Q403.46-38.53 398.02-38.78L398.02-38.78L396.61-38.78L396.61-38.78Q396.03-38.78 395.71-38.72L395.71-38.72L388.35 0Z" fill="url(#editing-sticker-gradient)" stroke="#000" stroke-width="2.5"></path></g></g><style>text {
  font-size: 64px;
  font-family: Arial Black;
  dominant-baseline: central;
  text-anchor: middle;
}</style></svg>